# xmcd CD database file
#
# Track frame offsets:
#	150
#	17137
#	33775
#	51815
#	68657
#	82010
#	92860
#	117007
#	134045
#
# Disc length: 1962 seconds
#
# Revision: 0
# Processed by: cddbd v1.5.1PL2 Copyright (c) Steve Scherf et al.
# Submitted via: CDex 1.51
#
DISCID=7307a809
DTITLE=D.J. SACHIHO - eye of the typhoon
DYEAR=1900
DGENRE=Hip-Hop
TTITLE0=TYPHOON
TTITLE1=MEDIALIEN
TTITLE2=音の糸
TTITLE3=BREAK POINT
TTITLE4=ダブルコントラスト
TTITLE5=MY ANGEL IS …
TTITLE6=EVERYTHIN' ALRIGHT
TTITLE7=BREAK POINT(DOUGEON REMIX)
TTITLE8=祈り(DJ'S PRAY)
EXTD=
EXTT0=
EXTT1=
EXTT2=
EXTT3=
EXTT4=
EXTT5=
EXTT6=
EXTT7=
EXTT8=
PLAYORDER=
